<svg width="37" height="38" viewBox="0 0 37 38" fill="none" xmlns="http://www.w3.org/2000/svg">
<g clip-path="url(#clip0_0_26)">
<path d="M34.9445 26.1945C32.3853 26.1945 29.9083 25.7833 27.6061 25.0228C26.897 24.7967 26.085 24.9611 25.5198 25.5265L20.9976 30.059C15.1701 27.099 10.4115 22.3403 7.45145 16.5231L11.9736 11.9803C12.539 11.415 12.7033 10.6031 12.4773 9.89395C11.7168 7.59176 11.3056 5.11479 11.3056 2.55562C11.3055 1.41469 10.3908 0.5 9.25 0.5H2.05552C0.925 0.5 0 1.41469 0 2.55552C0 21.8572 15.6428 37.5 34.9445 37.5C36.0853 37.5 37 36.5853 37 35.4445V28.25C37 27.1092 36.0853 26.1945 34.9445 26.1945Z" fill="black"/>
</g>
<defs>
<clipPath id="clip0_0_26">
<rect width="37" height="37" fill="white" transform="translate(0 0.5)"/>
</clipPath>
</defs>
</svg>
