<svg width="46" height="46" viewBox="0 0 46 46" fill="none" xmlns="http://www.w3.org/2000/svg">
<g clip-path="url(#clip0_0_281)">
<path d="M3.26432 4.24952C3.63627 4.24952 3.93779 3.94809 3.93779 3.57605V1.57137C3.93779 1.44756 4.0385 1.34685 4.16231 1.34685H29.3162C29.44 1.34685 29.5407 1.44747 29.5407 1.57137V8.90648C29.5407 9.27843 29.8423 9.57995 30.2142 9.57995C30.5862 9.57995 30.8877 9.27852 30.8877 8.90648V1.57137C30.8877 0.704914 30.1828 0 29.3163 0H4.16222C3.29577 0 2.59085 0.704914 2.59085 1.57137V3.57605C2.59085 3.94809 2.89237 4.24952 3.26432 4.24952Z" fill="#4E3DFF"/>
<path d="M40.9408 17.2578H40.4692V14.0356C40.4692 12.6741 39.3615 11.5663 38 11.5663H8.54307C7.18149 11.5663 6.0738 12.6741 6.0738 14.0356V16.4266H4.1613C4.0375 16.4266 3.93678 16.326 3.93678 16.2021V6.70936C3.93678 6.3374 3.63527 6.03589 3.26331 6.03589C2.89136 6.03589 2.58984 6.33731 2.58984 6.70936V16.2021C2.58984 17.0685 3.29476 17.7734 4.16121 17.7734H6.07362V21.8271C6.07362 23.1886 7.18131 24.2964 8.54289 24.2964H37.9997C39.3613 24.2964 40.469 23.1886 40.469 21.8271V18.6048H40.9405C41.5595 18.6048 42.063 19.1082 42.063 19.7272V23.4242C42.063 24.2018 41.4822 24.8707 40.7122 24.9799L25.1063 27.1928C23.7473 27.3855 22.7067 28.5169 22.6064 29.8683H20.6588C20.0398 29.8683 19.5364 30.3718 19.5364 30.9907V32.4428C19.5364 33.274 19.7071 34.0808 20.0436 34.8408C20.3036 35.428 20.4355 36.0513 20.4355 36.6935V44.8777C20.4355 45.4966 20.939 46.0001 21.5579 46.0001H24.9844C25.6033 46.0001 26.1068 45.4966 26.1068 44.8777V43.367C26.1068 42.9951 25.8053 42.6936 25.4333 42.6936C25.0614 42.6936 24.7599 42.995 24.7599 43.367V44.6532H21.7824V36.6934C21.7824 35.8621 21.6117 35.0553 21.275 34.2953C21.015 33.7081 20.8831 33.0848 20.8831 32.4427V31.2151H25.6594V32.4427C25.6594 33.0848 25.5276 33.7081 25.2675 34.2953C24.9308 35.0553 24.7601 35.8621 24.7601 36.6934V40.0812C24.7601 40.4531 25.0617 40.7547 25.4336 40.7547C25.8056 40.7547 26.1071 40.4532 26.1071 40.0812V36.6934C26.1071 36.0512 26.239 35.4279 26.499 34.8407C26.8355 34.0807 27.0062 33.2739 27.0062 32.4427V30.9907C27.0062 30.3718 26.5027 29.8683 25.8838 29.8683H23.9613C24.0565 29.185 24.5974 28.6254 25.2957 28.5264L40.9016 26.3134C42.3317 26.1107 43.4101 24.8685 43.4101 23.4242V19.7272C43.4101 18.3656 42.3023 17.2578 40.9408 17.2578ZM14.5295 17.4643C14.4049 17.3991 14.2694 17.3668 14.1344 17.3668C13.9646 17.3668 13.7957 17.4178 13.6503 17.5185C13.3573 17.7217 13.0132 17.8291 12.6554 17.8291C11.6899 17.8291 10.9044 17.0436 10.9044 16.0782V12.9131H35.2453V16.0762C35.2453 17.0417 34.4598 17.8272 33.4944 17.8272C32.6234 17.8272 31.8779 17.1775 31.7604 16.316C31.7246 16.0537 31.565 15.8197 31.3336 15.6898C31.1023 15.5601 30.8196 15.5459 30.5774 15.652C30.356 15.749 30.1203 15.7982 29.877 15.7982C29.3168 15.7982 28.8037 15.5393 28.4694 15.0879C28.3102 14.8729 28.0549 14.7445 27.7864 14.7445C27.518 14.7445 27.2626 14.8729 27.1035 15.0878C26.7692 15.5392 26.256 15.7982 25.6959 15.7982H19.1627C18.7907 15.7982 18.4892 16.0996 18.4892 16.4717V18.53C18.4892 19.4955 17.7037 20.281 16.7383 20.281C15.7728 20.281 14.9873 19.4955 14.9873 18.53V18.2204C14.9873 17.9019 14.8119 17.6122 14.5295 17.4643ZM39.1223 21.8271C39.1223 22.446 38.6188 22.9495 37.9999 22.9495H8.54307C7.92414 22.9495 7.42065 22.446 7.42065 21.8271V14.0356C7.42065 13.4166 7.92414 12.9132 8.54307 12.9132H9.55759V16.0783C9.55759 17.7865 10.9473 19.1761 12.6554 19.1761C13.007 19.1761 13.3511 19.1174 13.6767 19.0037C13.9053 20.4879 15.1912 21.6279 16.7383 21.6279C18.4465 21.6279 19.8362 20.2382 19.8362 18.5301V17.1452H25.6959C26.4724 17.1452 27.22 16.8486 27.7864 16.3319C28.3528 16.8487 29.1004 17.1452 29.877 17.1452C30.1092 17.1452 30.3376 17.1198 30.5604 17.0695C30.9789 18.302 32.1526 19.1742 33.4945 19.1742C35.2027 19.1742 36.5923 17.7845 36.5923 16.0764V12.9132H38C38.6189 12.9132 39.1224 13.4167 39.1224 14.0357V21.8271H39.1223Z" fill="#4E3DFF"/>
<path d="M12.1671 25.4121C11.7743 25.4121 11.4043 25.6038 11.1775 25.9248C9.56171 28.2097 9.56171 29.0113 9.56171 29.2748C9.56171 30.7114 10.7305 31.8801 12.1671 31.8801C13.6037 31.8801 14.7725 30.7114 14.7725 29.2748C14.7725 29.0113 14.7725 28.2097 13.1568 25.9248C12.9299 25.6038 12.5599 25.4121 12.1671 25.4121ZM12.1671 30.5333C11.4731 30.5333 10.9086 29.9687 10.9086 29.2748C10.9086 28.9918 11.2408 28.1934 12.1671 26.8594C13.0933 28.1933 13.4256 28.9918 13.4256 29.2748C13.4256 29.9687 12.861 30.5333 12.1671 30.5333Z" fill="#4E3DFF"/>
</g>
<defs>
<clipPath id="clip0_0_281">
<rect width="46" height="46" fill="white"/>
</clipPath>
</defs>
</svg>
