<svg width="46" height="46" viewBox="0 0 46 46" fill="none" xmlns="http://www.w3.org/2000/svg">
<path d="M42.2806 40.792H40.7973V42.2753H42.2806V40.792Z" fill="#4E3DFF"/>
<path d="M27.4472 41.5336H25.9638V43.017H27.4472V41.5336Z" fill="#4E3DFF"/>
<path d="M45.9365 40.8232C45.8333 40.1994 45.5984 39.6047 45.2473 39.0787V25.9585C45.2419 22.6014 43.1822 19.5895 40.0556 18.3668V15.5751C40.0556 15.1655 39.7235 14.8334 39.3139 14.8334H35.1709L37.396 12.6084H42.2806C42.4773 12.6084 42.6659 12.5302 42.805 12.3911L45.7717 9.42443C45.9107 9.28537 45.989 9.0968 45.989 8.90007V5.19171C45.989 4.99498 45.9107 4.80641 45.7717 4.66734L42.805 1.70065C42.6659 1.56159 42.4773 1.48334 42.2806 1.48334H39.3139V0.741672C39.3139 0.332084 38.9818 0 38.5723 0H28.1888C27.9921 0 27.8035 0.0782464 27.6645 0.21731L21.7311 6.15069L7.06602 20.8158L2.84961 21.5189V21.5315C2.69775 21.552 2.55628 21.62 2.4454 21.7258L0.220383 23.9508C-0.0691477 24.2404 -0.0691477 24.7099 0.220383 24.9995L6.89543 31.6746C7.18506 31.9641 7.65454 31.9641 7.94416 31.6746L10.1692 29.4496C10.2754 29.3387 10.3435 29.1969 10.3635 29.0446H10.3761L11.0792 24.829L25.7465 10.1661L31.4626 4.45003H38.5723C38.9818 4.45003 39.3139 4.11795 39.3139 3.70836V2.96669H41.9736L44.5056 5.49876V8.59302L41.9736 11.1251H37.0889C36.8922 11.1251 36.7036 11.2033 36.5646 11.3424L33.0735 14.8334H28.9305C28.5209 14.8334 28.1888 15.1655 28.1888 15.5751V18.3668C25.0622 19.5895 23.0026 22.6014 22.9971 25.9585V42.2753C22.9971 44.3234 24.6575 45.9837 26.7055 45.9837C28.7535 45.9837 30.4139 44.3234 30.4139 42.2753H37.1557C37.5566 44.7 39.8474 46.3406 42.2721 45.9396C44.6969 45.5387 46.3375 43.2479 45.9365 40.8232ZM7.42202 30.1015L1.79569 24.4752L2.97199 23.2989L8.59831 28.9252L7.42202 30.1015ZM9.86435 23.9508C9.75504 24.0602 9.68273 24.201 9.65742 24.3536L9.15234 27.3818L4.51541 22.7449L7.5444 22.2398C7.69662 22.2143 7.83717 22.142 7.94638 22.0329L22.2555 7.72378L24.1734 9.64174L9.86435 23.9508ZM25.2222 8.59302L23.3042 6.67505L28.1888 1.7904L30.1068 3.70836L25.2222 8.59302ZM37.8306 2.96669H31.4626L29.9792 1.48334H37.8306V2.96669ZM29.6722 16.3168H38.5723V17.9418C38.0832 17.8494 37.5867 17.802 37.0889 17.8001H31.1555C30.6578 17.802 30.1613 17.8494 29.6722 17.9418V16.3168ZM31.1555 19.2835H37.0889C40.487 19.2876 43.3412 21.8403 43.7232 25.2169H24.5213C24.9031 21.8403 27.7575 19.2876 31.1555 19.2835ZM24.4805 26.7002H43.764V28.1835H24.4805V26.7002ZM43.764 29.6669V32.6336H39.3139V29.6669H43.764ZM24.4805 29.6669H37.8306V31.1502H24.4805V29.6669ZM24.4805 32.6336H37.8306V33.3753C37.8306 33.7848 38.1627 34.1169 38.5723 34.1169H43.764V37.6859C43.3056 37.42 42.8031 37.2386 42.2806 37.1504V36.3419C42.2806 35.9324 41.9485 35.6003 41.5389 35.6003H26.7055C26.2959 35.6003 25.9638 35.9324 25.9638 36.3419V38.6411C25.4242 38.7555 24.9171 38.99 24.4805 39.3272V32.6336ZM26.7055 44.5003C25.4766 44.5003 24.4805 43.5042 24.4805 42.2753C24.4805 41.0465 25.4766 40.0503 26.7055 40.0503C27.9344 40.0503 28.9305 41.0465 28.9305 42.2753C28.9305 43.5042 27.9344 44.5003 26.7055 44.5003ZM37.1557 40.792H30.0994C29.6162 39.6875 28.6276 38.8858 27.4472 38.6411V37.0836H40.7973V37.1504C38.9338 37.4688 37.4741 38.9285 37.1557 40.792ZM41.5389 44.5003C39.9005 44.5003 38.5723 43.1721 38.5723 41.5336C38.5723 39.8952 39.9005 38.567 41.5389 38.567C43.1774 38.567 44.5056 39.8952 44.5056 41.5336C44.5056 43.1721 43.1774 44.5003 41.5389 44.5003Z" fill="#4E3DFF"/>
<path d="M4.45531 31.8919C4.45531 30.663 3.45915 29.6669 2.2303 29.6669C1.00144 29.6669 0.00527954 30.663 0.00527954 31.8919C0.00527954 33.1207 1.00144 34.1169 2.2303 34.1169C3.45915 34.1169 4.45531 33.1207 4.45531 31.8919ZM1.48862 31.8919C1.48862 31.4823 1.82071 31.1502 2.2303 31.1502C2.63989 31.1502 2.97197 31.4823 2.97197 31.8919C2.97197 32.3015 2.63989 32.6336 2.2303 32.6336C1.82071 32.6336 1.48862 32.3015 1.48862 31.8919Z" fill="#4E3DFF"/>
<path d="M2.97197 40.0503C1.33352 40.0503 0.00527954 41.3785 0.00527954 43.017C0.00527954 44.6554 1.33352 45.9837 2.97197 45.9837C4.61042 45.9837 5.93866 44.6554 5.93866 43.017C5.93866 41.3785 4.61042 40.0503 2.97197 40.0503ZM2.97197 44.5003C2.1527 44.5003 1.48862 43.8363 1.48862 43.017C1.48862 42.1977 2.1527 41.5336 2.97197 41.5336C3.79124 41.5336 4.45531 42.1977 4.45531 43.017C4.45531 43.8363 3.79124 44.5003 2.97197 44.5003Z" fill="#4E3DFF"/>
<path d="M6.68034 34.1169C5.45148 34.1169 4.45532 35.1131 4.45532 36.342C4.45532 37.5708 5.45148 38.567 6.68034 38.567C7.9092 38.567 8.90536 37.5708 8.90536 36.342C8.90536 35.1131 7.9092 34.1169 6.68034 34.1169ZM6.68034 37.0836C6.27075 37.0836 5.93867 36.7515 5.93867 36.342C5.93867 35.9324 6.27075 35.6003 6.68034 35.6003C7.08993 35.6003 7.42201 35.9324 7.42201 36.342C7.42201 36.7515 7.08993 37.0836 6.68034 37.0836Z" fill="#4E3DFF"/>
<path d="M13.3554 36.3419C12.1265 36.3419 11.1304 37.3381 11.1304 38.5669C11.1304 39.7958 12.1265 40.792 13.3554 40.792C14.5843 40.792 15.5804 39.7958 15.5804 38.5669C15.5804 37.3381 14.5843 36.3419 13.3554 36.3419ZM13.3554 39.3086C12.9458 39.3086 12.6137 38.9765 12.6137 38.5669C12.6137 38.1573 12.9458 37.8253 13.3554 37.8253C13.765 37.8253 14.0971 38.1573 14.0971 38.5669C14.0971 38.9765 13.765 39.3086 13.3554 39.3086Z" fill="#4E3DFF"/>
<path d="M14.0971 28.1835C12.4586 28.1835 11.1304 29.5118 11.1304 31.1502C11.1304 32.7887 12.4586 34.1169 14.0971 34.1169C15.7355 34.1169 17.0638 32.7887 17.0638 31.1502C17.0638 29.5118 15.7355 28.1835 14.0971 28.1835ZM14.0971 32.6336C13.2778 32.6336 12.6137 31.9695 12.6137 31.1502C12.6137 30.331 13.2778 29.6669 14.0971 29.6669C14.9163 29.6669 15.5804 30.331 15.5804 31.1502C15.5804 31.9695 14.9163 32.6336 14.0971 32.6336Z" fill="#4E3DFF"/>
<path d="M8.90537 40.0503H7.42203V41.5336H8.90537V40.0503Z" fill="#4E3DFF"/>
<path d="M11.8721 42.2753H10.3887V43.7587H11.8721V42.2753Z" fill="#4E3DFF"/>
</svg>
