<svg width="117" height="117" viewBox="0 0 117 117" fill="none" xmlns="http://www.w3.org/2000/svg">
<g clip-path="url(#clip0_0_105)">
<path d="M116.993 3.91201H113.094V7.81161H116.993V3.91201Z" fill="black"/>
<path d="M113.094 0.0126724H109.194V3.91227H113.094V0.0126724Z" fill="black"/>
<path d="M109.194 3.91201H105.295V7.81161H109.194V3.91201Z" fill="black"/>
<path d="M113.094 7.81161H109.194V11.7112H113.094V7.81161Z" fill="black"/>
<path d="M101.395 3.91201H97.4954V7.81161H101.395V3.91201Z" fill="black"/>
<path d="M97.4954 42.908H93.5958V46.8076H97.4954V42.908Z" fill="black"/>
<path d="M105.295 42.908H101.395V46.8076H105.295V42.908Z" fill="black"/>
<path d="M101.395 39.0084H97.4954V42.908H101.395V39.0084Z" fill="black"/>
<path d="M101.395 46.8076H97.4954V50.7072H101.395V46.8076Z" fill="black"/>
<path d="M25.3552 37.0586H21.4556V40.9582H25.3552V37.0586Z" fill="black"/>
<path d="M21.4556 33.159H17.556V37.0586H21.4556V33.159Z" fill="black"/>
<path d="M17.5536 37.0586H13.654V40.9582H17.5536V37.0586Z" fill="black"/>
<path d="M21.4556 40.9582H17.556V44.8578H21.4556V40.9582Z" fill="black"/>
<path d="M9.75437 37.0586H5.85477V40.9582H9.75437V37.0586Z" fill="black"/>
<path d="M3.90616 11.7112H0.00656128V15.6108H3.90616V11.7112Z" fill="black"/>
<path d="M11.7042 11.7112H7.80457V15.6108H11.7042V11.7112Z" fill="black"/>
<path d="M7.80457 7.81161H3.90497V11.7112H7.80457V7.81161Z" fill="black"/>
<path d="M7.80457 15.6108H3.90497V19.5104H7.80457V15.6108Z" fill="black"/>
<path d="M31.2046 0.0126724H27.305V3.91227H31.2046V0.0126724Z" fill="black"/>
<path d="M104.959 91.634C104.13 89.3028 101.92 87.7476 99.4462 87.7534H94.7296L87.7474 75.536V54.6068C87.7474 50.2995 84.2555 46.8076 79.9482 46.8076V21.4602C80.3437 10.0105 71.3827 0.407996 59.933 0.01243C59.4555 -0.00414333 58.9778 -0.00414333 58.5004 0.01243C45.0935 0.01243 37.4425 11.0249 37.0525 21.3861C37.0525 21.4115 37.0662 21.4349 37.0662 21.4602H37.0525V46.8076C32.7452 46.8076 29.2533 50.2995 29.2533 54.6068V75.536L22.2711 87.7534H17.5548C14.3317 87.7469 11.7137 90.354 11.7068 93.577C11.7017 96.0506 13.2567 98.2587 15.5874 99.0876C12.7712 102.271 13.0688 107.135 16.2523 109.951C17.4027 110.969 18.8316 111.619 20.3547 111.818L58.2374 116.983C58.4129 117.006 58.5903 117.006 58.7658 116.983L96.6484 111.818C100.863 111.267 103.833 107.405 103.283 103.19C103.084 101.667 102.434 100.238 101.416 99.0876C104.452 98.0079 106.039 94.6709 104.959 91.634ZM58.5006 3.91227C67.7621 3.48234 75.6189 10.6418 76.0488 19.9036C76.0729 20.4222 76.0729 20.9418 76.0488 21.4605H72.1492C66.7678 21.4541 62.4065 17.0929 62.4002 11.7115C62.4 10.6347 61.5269 9.76192 60.4499 9.76216C59.933 9.76216 59.4375 9.96762 59.0719 10.333C54.2381 15.1853 47.9529 18.3276 41.1708 19.2826C42.2429 10.5211 49.6736 3.93055 58.5006 3.91227ZM54.601 48.7577V40.4184C55.872 40.7669 57.1828 40.9485 58.5006 40.9585C59.8191 40.9473 61.1304 40.7616 62.4002 40.4067V48.7577C62.4002 49.8345 63.2732 50.7075 64.35 50.7075H68.2496V53.2013L58.5006 56.4516L48.7516 53.2013V50.7075H52.6512C53.728 50.7075 54.601 49.8345 54.601 48.7577ZM43.2765 22.8624C49.0658 21.7915 54.495 19.2894 59.0699 15.5838C60.7919 21.3737 66.1087 25.3479 72.1492 25.3601H72.9993C70.5621 31.9017 64.3812 37.0589 58.5006 37.0589C51.7289 37.0589 44.889 30.4959 43.2765 22.8624ZM66.2998 46.8079V38.8429C70.6045 36.4203 74.0208 32.6835 76.0488 28.1795V46.8079H70.1994H66.2998ZM40.9524 28.1853C42.9682 32.6989 46.3875 36.4408 50.7014 38.8546V46.8079H40.9524V28.1853ZM44.852 50.7075V54.6071C44.8527 55.446 45.3896 56.1903 46.1856 56.4555V56.4574L57.8845 60.357C58.2849 60.4916 58.7182 60.4916 59.1187 60.357L70.8175 56.4574C71.6132 56.1915 72.1497 55.4462 72.1492 54.6071V50.7075H77.4507L68.6766 85.8039H48.3246L39.5505 50.7075H44.852ZM47.6987 89.7035H69.3025L77.1368 98.8422L58.5006 101.385L39.8644 98.85L47.6987 89.7035ZM35.2746 98.2163L31.6772 97.7269L43.8927 84.1524L44.6726 87.2506L35.2746 98.2163ZM72.3442 87.2506L73.1241 84.1524L85.3396 97.7269L81.7344 98.2163L72.3442 87.2506ZM15.605 93.6031C15.605 92.5263 16.478 91.6533 17.5548 91.6533H23.4042C24.1022 91.6548 24.7476 91.2828 25.0966 90.6784L32.8958 77.0298C33.0657 76.7329 33.1544 76.3968 33.1532 76.0549V54.6071C33.1532 53.0143 34.122 51.5815 35.6002 50.9883L39.1761 65.29L42.7501 79.5918L28.3859 95.5529H17.5548C16.4777 95.5529 15.605 94.6799 15.605 93.6031ZM58.5006 113.084L20.8811 107.952C18.7758 107.674 17.2947 105.742 17.5728 103.636C17.8263 101.717 19.4663 100.286 21.4017 100.295C21.5753 100.295 21.7486 100.307 21.9204 100.332L35.7854 102.223L57.8182 105.228L68.2554 111.752L58.5006 113.084ZM96.1201 107.952L74.294 110.929L64.0985 104.557L81.2021 102.217L95.0652 100.326C97.1693 100.031 99.114 101.497 99.4091 103.601C99.4342 103.78 99.4467 103.961 99.4464 104.142C99.4396 106.062 98.0221 107.686 96.1201 107.952ZM99.4464 95.5529H88.6153L74.2491 79.5899L77.8231 65.2881L81.3991 50.9863C82.8787 51.5793 83.8485 53.0131 83.848 54.6071V76.0549C83.8468 76.3968 83.9355 76.7329 84.1054 77.0298L91.9046 90.6784C92.2536 91.2828 92.899 91.6548 93.597 91.6533H99.4464C100.523 91.6533 101.396 92.5263 101.396 93.6031C101.396 94.6799 100.523 95.5529 99.4464 95.5529Z" fill="black"/>
</g>
<defs>
<clipPath id="clip0_0_105">
<rect width="117" height="117" fill="white"/>
</clipPath>
</defs>
</svg>
