<svg width="19" height="19" viewBox="0 0 19 19" fill="none" xmlns="http://www.w3.org/2000/svg">
<path d="M18.9968 0.358603C18.994 0.336707 18.9906 0.315637 18.984 0.294154C18.977 0.270606 18.9675 0.249123 18.9568 0.227227C18.951 0.215246 18.9489 0.202439 18.9419 0.190871C18.9374 0.183434 18.9299 0.178477 18.9245 0.171454C18.9109 0.152449 18.8948 0.135924 18.8779 0.118986C18.8609 0.102047 18.844 0.0863481 18.8246 0.0727147C18.8175 0.0677571 18.813 0.0607338 18.806 0.0566025C18.7944 0.0495792 18.7816 0.0479267 18.7696 0.0421428C18.7469 0.0309882 18.7246 0.0214861 18.7006 0.0144629C18.6804 0.00909215 18.6606 0.00620021 18.6399 0.00372141C18.6155 0.000829479 18.592 -0.000823054 18.5676 0.000416346C18.5449 0.00165575 18.523 0.00620021 18.5007 0.0115709C18.4866 0.014876 18.4722 0.0136366 18.4581 0.0185942L0.280255 6.21559C0.115828 6.27095 0.00386865 6.42423 0.000563578 6.59816C-0.00274149 6.77208 0.103021 6.92949 0.265795 6.99187L8.75858 10.2552L12.4284 18.7509C12.4941 18.9025 12.6437 19 12.8077 19C12.8147 19 12.8213 19 12.8284 18.9996C13.0006 18.9909 13.1489 18.8765 13.2014 18.7125L18.9853 0.534598C18.9894 0.521791 18.9882 0.50857 18.9906 0.49535C18.9956 0.472215 18.9993 0.449905 19.0002 0.426357C19.001 0.403221 18.9997 0.381325 18.9968 0.358603ZM1.62583 6.62914L17.0427 1.37326L8.96638 9.4496L1.62583 6.62914ZM12.7486 17.409L9.55923 10.0255L17.6827 1.90166L12.7486 17.409Z" fill="white"/>
</svg>
