<svg width="36" height="36" viewBox="0 0 36 36" fill="none" xmlns="http://www.w3.org/2000/svg">
<path d="M26.8335 7.59782C28.2131 7.59782 29.3306 6.48769 29.3306 5.10559V2.49717C29.3306 1.11384 28.2143 0 26.8335 0C25.4526 0 24.3375 1.1126 24.3375 2.49717V5.10683C24.3388 6.48769 25.4538 7.59782 26.8335 7.59782Z" fill="#030104"/>
<path d="M35.7045 4.31936H30.6781V5.58896C30.6781 7.68436 28.9758 9.39158 26.8767 9.39158C24.7751 9.39158 23.0765 7.68436 23.0765 5.58896V4.31936H12.9334V5.58896C12.9334 7.68436 11.2286 9.39158 9.13074 9.39158C7.03287 9.39158 5.32936 7.68559 5.32936 5.58896V4.31936L0.257141 4.25632V36H2.79387H33.2099L35.7429 35.9926L35.7045 4.31936ZM33.2074 33.4719H2.79387V13.193H33.2099V33.4719H33.2074Z" fill="#030104"/>
<path d="M9.09119 7.59782C10.4708 7.59782 11.5896 6.48769 11.5896 5.10559V2.49717C11.5896 1.1126 10.4708 0 9.09119 0C7.71157 0 6.5965 1.1126 6.5965 2.49717V5.10683C6.5965 6.48769 7.71033 7.59782 9.09119 7.59782Z" fill="#030104"/>
<path d="M16.935 15.9139H12.9408V19.4396H16.935V15.9139Z" fill="#030104"/>
<path d="M23.3967 15.9139H19.3988V19.4396H23.3967V15.9139Z" fill="#030104"/>
<path d="M29.3825 15.9139H25.3883V19.4396H29.3825V15.9139Z" fill="#030104"/>
<path d="M16.935 21.7686H12.9408V25.2918H16.935V21.7686Z" fill="#030104"/>
<path d="M23.3967 21.7686H19.3988V25.2918H23.3967V21.7686Z" fill="#030104"/>
<path d="M29.3825 21.7686H25.3883V25.2918H29.3825V21.7686Z" fill="#030104"/>
<path d="M16.935 27.7396H12.9408V31.2628H16.935V27.7396Z" fill="#030104"/>
<path d="M10.5883 21.7686H6.5965V25.2918H10.5883V21.7686Z" fill="#030104"/>
<path d="M10.5883 27.7396H6.5965V31.2628H10.5883V27.7396Z" fill="#030104"/>
<path d="M23.3967 27.7396H19.3988V31.2628H23.3967V27.7396Z" fill="#030104"/>
<path d="M29.3825 27.7396H25.3883V31.2628H29.3825V27.7396Z" fill="#030104"/>
</svg>
