<svg width="45" height="45" viewBox="0 0 45 45" fill="none" xmlns="http://www.w3.org/2000/svg">
<g clip-path="url(#clip0_0_18)">
<path d="M21.279 32.812C20.5909 32.1272 19.478 32.1298 18.7931 32.8179L12.6562 38.9845V1.75781C12.6562 0.786973 11.8693 0 10.8984 0C9.92759 0 9.14061 0.786973 9.14061 1.75781V38.9846L3.00374 32.8178C2.3189 32.1297 1.20594 32.1271 0.517845 32.8119C-0.170338 33.4969 -0.172886 34.6098 0.511869 35.2979L9.65249 44.4829C9.65302 44.4835 9.65363 44.4839 9.65416 44.4844C10.339 45.1708 11.4556 45.173 12.1427 44.4845C12.1432 44.4839 12.1438 44.4835 12.1444 44.4829L21.285 35.298C21.9696 34.61 21.9673 33.497 21.279 32.812Z" fill="#4E3DFF"/>
</g>
<defs>
<clipPath id="clip0_0_18">
<rect width="45" height="45" fill="white"/>
</clipPath>
</defs>
</svg>
