<svg width="117" height="117" viewBox="0 0 117 117" fill="none" xmlns="http://www.w3.org/2000/svg">
<path d="M67.5874 90.464H27.0275C26.1652 90.464 25.4675 91.1625 25.4675 92.024C25.4675 92.8855 26.1652 93.584 27.0275 93.584H67.5874C68.4497 93.584 69.1474 92.8855 69.1474 92.024C69.1474 91.1625 68.4497 90.464 67.5874 90.464Z" fill="black"/>
<path d="M84.7474 93.584C85.6097 93.584 86.3074 92.8855 86.3074 92.024C86.3074 91.1625 85.6097 90.464 84.7474 90.464H78.5074C77.6451 90.464 76.9474 91.1625 76.9474 92.024C76.9474 92.8855 77.6451 93.584 78.5074 93.584H84.7474Z" fill="black"/>
<path d="M42.6274 99.824H16.1074C15.2451 99.824 14.5474 100.523 14.5474 101.384C14.5474 102.246 15.2451 102.944 16.1074 102.944H42.6274C43.4897 102.944 44.1874 102.246 44.1874 101.384C44.1874 100.523 43.4897 99.824 42.6274 99.824Z" fill="black"/>
<path d="M59.7874 99.824H51.9874C51.1251 99.824 50.4274 100.523 50.4274 101.384C50.4274 102.246 51.1251 102.944 51.9874 102.944H59.7874C60.6496 102.944 61.3474 102.246 61.3474 101.384C61.3474 100.523 60.6496 99.824 59.7874 99.824Z" fill="black"/>
<path d="M98.7874 99.824H70.7074C69.8451 99.824 69.1474 100.523 69.1474 101.384C69.1474 102.246 69.8451 102.944 70.7074 102.944H98.7874C99.6497 102.944 100.347 102.246 100.347 101.384C100.347 100.523 99.6497 99.824 98.7874 99.824Z" fill="black"/>
<path d="M14.8064 32.776H19.4864V37.456C19.4864 38.3175 20.1841 39.016 21.0464 39.016H28.8464C29.7087 39.016 30.4064 38.3175 30.4064 37.456V32.776H35.0864C35.9487 32.776 36.6464 32.0775 36.6464 31.216V23.416C36.6464 22.5545 35.9487 21.856 35.0864 21.856H30.4064V17.176C30.4064 16.3145 29.7087 15.616 28.8464 15.616H21.0464C20.1841 15.616 19.4864 16.3145 19.4864 17.176V21.856H14.8064C13.9441 21.856 13.2464 22.5545 13.2464 23.416V31.216C13.2464 32.0775 13.9441 32.776 14.8064 32.776ZM16.3664 24.976H21.0464C21.9087 24.976 22.6064 24.2775 22.6064 23.416V18.736H27.2864V23.416C27.2864 24.2775 27.9841 24.976 28.8464 24.976H33.5264V29.656H28.8464C27.9841 29.656 27.2864 30.3545 27.2864 31.216V35.896H22.6064V31.216C22.6064 30.3545 21.9087 29.656 21.0464 29.656H16.3664V24.976Z" fill="black"/>
<path d="M94.3866 58.6685C93.4655 58.6685 92.719 59.4153 92.719 60.3365C92.719 61.2577 93.4655 62.0042 94.3866 62.0042C95.3078 62.0042 96.0543 61.2573 96.0543 60.3365C96.0543 59.4153 95.3074 58.6685 94.3866 58.6685Z" fill="black"/>
<path d="M70.9664 20.296C71.8287 20.296 72.5264 19.5975 72.5264 18.736V15.616C72.5264 14.7545 71.8287 14.056 70.9664 14.056C70.1041 14.056 69.4064 14.7545 69.4064 15.616V18.736C69.4064 19.5975 70.1041 20.296 70.9664 20.296Z" fill="black"/>
<path d="M70.9664 23.416C70.1041 23.416 69.4064 24.1145 69.4064 24.976V28.096C69.4064 28.9575 70.1041 29.656 70.9664 29.656C71.8287 29.656 72.5264 28.9575 72.5264 28.096V24.976C72.5264 24.1145 71.8287 23.416 70.9664 23.416Z" fill="black"/>
<path d="M64.7264 23.416H67.8464C68.7087 23.416 69.4064 22.7175 69.4064 21.856C69.4064 20.9945 68.7087 20.296 67.8464 20.296H64.7264C63.8641 20.296 63.1664 20.9945 63.1664 21.856C63.1664 22.7175 63.8641 23.416 64.7264 23.416Z" fill="black"/>
<path d="M74.0864 23.416H77.2064C78.0686 23.416 78.7664 22.7175 78.7664 21.856C78.7664 20.9945 78.0686 20.296 77.2064 20.296H74.0864C73.2241 20.296 72.5264 20.9945 72.5264 21.856C72.5264 22.7175 73.2241 23.416 74.0864 23.416Z" fill="black"/>
<path d="M105.186 38.5491L91.3392 22.776C90.9995 22.3899 90.4921 22.1992 89.9832 22.2557C89.4727 22.3158 89.025 22.6235 88.7859 23.0782L78.1174 43.3325L56.7345 40.0144C49.6946 38.9235 42.5892 40.5401 36.7197 44.5657L19.3479 56.4806C17.9556 57.4357 17.0614 58.9469 16.8952 60.6274C16.7681 61.916 17.0871 63.1858 17.7708 64.2552L16.1792 65.5574C13.1598 68.0277 11.4274 71.6824 11.4274 75.5831V82.664C11.4274 83.5255 12.1251 84.224 12.9874 84.224H90.9874C91.6594 84.224 92.2549 83.7942 92.4667 83.1577L94.5126 77.0222C95.2529 74.8012 94.7989 72.4015 93.297 70.6048C91.7963 68.81 89.5249 67.9356 87.1986 68.2695C83.4035 68.8143 79.6221 67.9485 76.4455 65.8507C77.0368 65.3187 77.582 64.7252 78.055 64.059C79.1427 62.7482 95.171 49.0791 105.018 40.771C105.34 40.5015 105.538 40.1134 105.568 39.6953C105.6 39.2765 105.462 38.8635 105.186 38.5491ZM87.6436 71.3571C88.8896 71.1828 90.101 71.6457 90.9036 72.6055C91.7066 73.5661 91.9488 74.848 91.5541 76.0348L89.8631 81.104H72.2331C72.168 81.0073 72.1185 80.9027 72.0295 80.8197C71.5693 80.3891 60.567 70.2639 46.1784 68.6657C45.3434 68.5659 44.5497 69.1875 44.4554 70.0436C44.361 70.8996 44.978 71.6714 45.834 71.7658C55.4105 72.8301 63.5642 78.1462 67.4544 81.1036H14.5474V75.5828C14.5474 72.6211 15.8621 69.847 18.1534 67.9715L20.1537 66.3351C21.6173 67.0187 23.3369 67.085 24.8657 66.4154L29.0777 64.5707C27.3648 66.7972 25.6757 69.4949 24.2928 72.7209C23.9531 73.513 24.32 74.4303 25.1125 74.7692C25.3122 74.8554 25.5209 74.8964 25.7264 74.8964C26.3313 74.8964 26.9069 74.5415 27.16 73.9502C29.7836 67.8292 33.5997 63.7455 36.3371 61.3977C36.3406 61.3946 36.3418 61.3899 36.3457 61.3868L38.6147 60.393C38.7657 61.1707 39.0886 61.9113 39.5698 62.5692C40.4306 63.747 41.6981 64.5185 43.1391 64.7415L67.447 68.5136C68.0215 68.6029 68.5929 68.6462 69.1595 68.6462C70.7156 68.6462 72.2226 68.3011 73.6063 67.6841C73.6274 67.6997 73.6492 67.7145 73.6707 67.7301C73.8797 68.0741 75.6464 71.1336 75.6464 76.4556C75.6464 77.3171 76.3441 78.0156 77.2064 78.0156C78.0687 78.0156 78.7664 77.3171 78.7664 76.4556C78.7664 73.9163 78.4092 71.8118 77.9638 70.1618C80.9995 71.4023 84.3153 71.8384 87.6436 71.3571ZM75.5384 62.2147C73.8033 64.6577 70.8872 65.8932 67.9256 65.4307L43.6176 61.659C43.0007 61.5638 42.4566 61.2331 42.0881 60.728C41.7195 60.2238 41.5686 59.606 41.6645 58.9883C41.8443 57.8342 42.8423 57.0063 43.9757 57.0063C44.0946 57.0063 44.2147 57.0152 44.3352 57.0344L58.9801 59.3073C59.8346 59.4383 60.6287 58.8564 60.7609 58.0047C60.8931 57.1529 60.31 56.3561 59.4583 56.2239L44.8134 53.951C42.4734 53.5868 40.2445 54.7751 39.1751 56.7473C39.1385 56.7602 39.1007 56.7746 39.064 56.7906L23.6134 63.5579C22.6368 63.9861 21.4715 63.7626 20.7235 62.9959C20.1888 62.4476 19.9251 61.6964 20 60.9347C20.0761 60.1723 20.4813 59.4867 21.1123 59.0542L38.4841 47.1393C43.6972 43.5638 50.0074 42.1243 56.2564 43.0985L78.7391 46.587C79.4017 46.6892 80.0475 46.3616 80.3584 45.7719L90.4894 26.5387L101.792 39.4126C94.5446 45.5333 76.5543 60.785 75.5384 62.2147Z" fill="black"/>
</svg>
