<svg width="117" height="117" viewBox="0 0 117 117" fill="none" xmlns="http://www.w3.org/2000/svg">
<path d="M3.89981 28.2649H89.6957V59.4634H93.5955V10.7157C93.5955 9.63889 92.7224 8.76582 91.6456 8.76582H83.846V4.866H79.9462V8.76582H72.1465V4.866H68.2467V8.76582H60.4471V4.866H56.5473V8.76582H48.7477V4.866H44.8478V8.76582H37.0482V4.866H33.1484V8.76582H25.3488V4.866H21.449V8.76582H13.6493V4.866H9.74953V8.76582H1.94991C0.873071 8.76582 0 9.63889 0 10.7157V100.411C0 101.488 0.873071 102.361 1.94991 102.361H72.1465V98.4615H3.89981V28.2649ZM3.89981 12.6656H9.74953V16.5654H13.6493V12.6656H21.449V16.5654H25.3488V12.6656H33.1484V16.5654H37.0482V12.6656H44.8478V16.5654H48.7477V12.6656H56.5473V16.5654H60.4471V12.6656H68.2467V16.5654H72.1465V12.6656H79.9462V16.5654H83.846V12.6656H89.6957V24.3651H3.89981V12.6656Z" fill="black"/>
<path d="M76.0463 73.1127H79.9461V39.9643C79.9461 38.8875 79.073 38.0144 77.9962 38.0144H31.1985C30.1216 38.0144 29.2485 38.8875 29.2485 39.9643V53.6137H15.5992C14.5224 53.6137 13.6493 54.4867 13.6493 55.5636V86.7621C13.6493 87.8389 14.5224 88.712 15.5992 88.712H70.1966V84.8122H64.3469V73.1127H76.0463ZM64.3469 41.9142H76.0463V53.6137H64.3469V41.9142ZM64.3469 57.5135H76.0463V69.2129H64.3469V57.5135ZM29.2485 84.8122H17.5491V73.1127H29.2485V84.8122ZM29.2485 69.2129H17.5491V57.5135H29.2485V69.2129ZM44.8478 84.8122H33.1484V73.1127H44.8478V84.8122ZM44.8478 69.2129H33.1484V57.5135H44.8478V69.2129ZM44.8478 53.6137H33.1484V41.9142H44.8478V53.6137ZM60.447 84.8122H48.7476V73.1127H60.447V84.8122ZM60.447 69.2129H48.7476V57.5135H60.447V69.2129ZM60.447 53.6137H48.7476V41.9142H60.447V53.6137Z" fill="black"/>
<path d="M116.181 84.8297C114.152 77.6697 108.555 72.0732 101.395 70.0436V67.263H105.295V63.3632H85.7959V67.263H89.6957V70.0436C78.2987 73.2743 71.6788 85.1322 74.9096 96.5292C78.1403 107.926 89.9982 114.546 101.395 111.315C112.792 108.085 119.412 96.2267 116.181 84.8297ZM93.5955 67.263H97.4953V69.2129H93.5955V67.263ZM95.5454 108.211C85.8534 108.211 77.9963 100.354 77.9963 90.6619C77.9963 80.9696 85.8534 73.1127 95.5454 73.1127C105.238 73.1127 113.095 80.9696 113.095 90.6619C113.083 100.349 105.233 108.199 95.5454 108.211Z" fill="black"/>
<path d="M97.3237 82.3183C95.2149 83.5162 93.2336 84.9255 91.4097 86.5242C89.1244 88.8083 89.1237 92.5124 91.4077 94.7977C93.6918 97.083 97.3959 97.0837 99.6812 94.7996C101.28 92.976 102.689 90.9944 103.887 88.8855C106.25 84.8141 106.64 82.4509 105.195 81.0118C103.751 79.5728 101.395 79.955 97.3237 82.3183ZM96.924 92.0405H96.9338C96.1626 92.7778 94.9478 92.7778 94.1766 92.0405C93.4154 91.2791 93.4154 90.0448 94.1766 89.2833C96.4872 87.3154 99.0579 85.675 101.816 84.4086C100.544 87.1652 98.8975 89.7333 96.924 92.0405Z" fill="black"/>
</svg>
