<svg width="46" height="46" viewBox="0 0 46 46" fill="none" xmlns="http://www.w3.org/2000/svg">
<path d="M39.8667 32.2H38.6661C37.8241 32.2008 36.9938 32.3967 36.2403 32.7727C35.1441 33.3176 33.8559 33.3176 32.7597 32.7727C32.3224 32.5581 31.8583 32.4034 31.3797 32.3127L32.8739 20.7H34.5C34.9234 20.7 35.2667 20.3567 35.2667 19.9333V16.8667C35.2667 16.4433 34.9234 16.1 34.5 16.1H31.4333V13.8C31.4333 13.5966 31.3524 13.4017 31.2087 13.258L27.6 9.64927V7.268L28.7623 6.3388L30.7472 10.3094L32.1195 9.62397L29.9866 5.359L30.935 4.6H33.7333C34.1567 4.6 34.5 4.25672 34.5 3.83333V0.766667C34.5 0.343275 34.1567 0 33.7333 0H26.0667C22.2579 0.0046 19.1713 3.0912 19.1667 6.9C19.1667 7.32339 19.5099 7.66667 19.9333 7.66667H21.4667V9.64927L19.3913 11.7246C19.2475 11.8684 19.1667 12.0633 19.1667 12.2667V16.1H17.6333V9.96667C17.6322 9.8717 17.6132 9.77787 17.5774 9.6899C17.5634 9.6601 17.5475 9.63115 17.5298 9.60327C17.5114 9.56311 17.4899 9.5244 17.4654 9.4875L14.5667 5.865V0.766667C14.5667 0.343275 14.2234 0 13.8 0H9.19999C8.7766 0 8.43333 0.343275 8.43333 0.766667V5.865L5.53456 9.4875C5.51012 9.5244 5.48856 9.56311 5.47016 9.60327C5.45253 9.63115 5.43662 9.6601 5.42263 9.6899C5.38678 9.77787 5.36781 9.8717 5.36666 9.96667V16.1H2.29999C1.8766 16.1 1.53333 16.4433 1.53333 16.8667V19.9333C1.53333 20.3567 1.8766 20.7 2.29999 20.7H3.92609L6.90613 43.7981C6.95548 44.1805 7.28112 44.4668 7.66666 44.4667H25.714C26.5835 45.4413 27.8272 45.999 29.1333 46H30.3339C31.1759 45.9992 32.0062 45.8033 32.7597 45.4273C33.8559 44.8824 35.1441 44.8824 36.2403 45.4273C36.9938 45.8033 37.8241 45.9992 38.6661 46H39.8667C42.4061 45.9975 44.4642 43.9395 44.4667 41.4V36.8C44.4642 34.2605 42.4061 32.2025 39.8667 32.2ZM31.4333 1.53333H32.9667V3.06667H31.4333V1.53333ZM33.7333 17.6333V19.1667H23V17.6333H33.7333ZM20.7544 6.13333C21.139 3.49456 23.4 1.53669 26.0667 1.53333H29.9V3.46533L26.5642 6.13333H20.7544ZM26.0667 7.66667V9.2H23V7.66667H26.0667ZM20.7 12.5841L22.5507 10.7333H26.5159L29.9 14.1174V16.1H20.7V12.5841ZM19.9333 17.6333H21.4667V23C21.465 23.292 21.6295 23.5595 21.8906 23.69L26.4906 25.99C26.715 26.1006 26.885 26.2971 26.9621 26.5351C27.0416 26.7905 27.014 27.0672 26.8855 27.3018C26.6649 27.7444 26.1272 27.9244 25.6846 27.7037C25.6839 27.7034 25.6832 27.703 25.6826 27.7027L22.5699 26.1464C22.1894 25.9605 21.7304 26.1182 21.5445 26.4987C21.4936 26.6029 21.4669 26.7174 21.4667 26.8333V34.5C21.4667 35.3469 20.7802 36.0333 19.9333 36.0333V29.1333H18.4V36.0333H16.8667V29.1333H15.3333V36.0333H13.8V29.1333H12.2667V36.0333C11.4198 36.0333 10.7333 35.3469 10.7333 34.5V17.6333H19.9333ZM9.96666 1.53333H13.0333V5.36667H9.96666V1.53333ZM9.56799 6.9H13.432L15.272 9.2H7.72799L9.56799 6.9ZM6.89999 10.7333H16.1V16.1H6.89999V10.7333ZM3.06666 19.1667V17.6333H9.19999V19.1667H3.06666ZM24.5333 36.8V41.4C24.5347 41.9227 24.6254 42.4412 24.8017 42.9333H8.34056L5.47169 20.7H9.19999V34.5C9.19999 36.1937 10.573 37.5667 12.2667 37.5667H19.9333C21.627 37.5667 23 36.1937 23 34.5V28.0738L25.0025 29.0751C26.2126 29.6723 27.6777 29.1755 28.2749 27.9654C28.2774 27.9604 28.2798 27.9554 28.2823 27.9504C28.5793 27.3617 28.6298 26.6788 28.4226 26.0529C28.2183 25.4266 27.7708 24.9089 27.1806 24.6161L23 22.5262V20.7H31.3283L29.844 32.2H29.1333C26.5938 32.2025 24.5358 34.2605 24.5333 36.8ZM42.9333 41.4C42.9333 43.0937 41.5603 44.4667 39.8667 44.4667H38.6661C38.0622 44.4658 37.4668 44.3252 36.9265 44.0557C35.398 43.2963 33.602 43.2963 32.0735 44.0557C31.5332 44.3252 30.9378 44.4658 30.3339 44.4667H29.1333C27.4397 44.4667 26.0667 43.0937 26.0667 41.4V40.2193C26.9074 40.979 28.0002 41.3997 29.1333 41.4H30.3339C31.1759 41.3992 32.0062 41.2033 32.7597 40.8273C33.8559 40.2824 35.1441 40.2824 36.2403 40.8273C36.9938 41.2033 37.8241 41.3992 38.6661 41.4H39.8667C40.9998 41.3997 42.0926 40.979 42.9333 40.2193V41.4ZM39.8667 39.8667H38.6661C38.0622 39.8658 37.4668 39.7252 36.9265 39.4557C35.398 38.6963 33.602 38.6963 32.0735 39.4557C31.5332 39.7252 30.9378 39.8658 30.3339 39.8667H29.1333C27.4397 39.8667 26.0667 38.4937 26.0667 36.8C26.0667 35.1063 27.4397 33.7333 29.1333 33.7333H30.3339C30.9378 33.7342 31.5332 33.8748 32.0735 34.1443C33.6021 34.9033 35.3979 34.9033 36.9265 34.1443C37.4668 33.8748 38.0622 33.7342 38.6661 33.7333H39.8667C41.5603 33.7333 42.9333 35.1063 42.9333 36.8C42.9333 38.4937 41.5603 39.8667 39.8667 39.8667Z" fill="#4E3DFF"/>
<path d="M40.6333 35.2667H39.1V36.8H40.6333V35.2667Z" fill="#4E3DFF"/>
<path d="M32.9667 35.2667H31.4333V36.8H32.9667V35.2667Z" fill="#4E3DFF"/>
<path d="M29.9 36.0333H28.3667V37.5667H29.9V36.0333Z" fill="#4E3DFF"/>
<path d="M37.5667 36.0333H36.0333V37.5667H37.5667V36.0333Z" fill="#4E3DFF"/>
</svg>
