<svg width="46" height="46" viewBox="0 0 46 46" fill="none" xmlns="http://www.w3.org/2000/svg">
<path d="M42.1621 30.9089C42.3232 30.5715 42.4067 30.2021 42.4062 29.8281V26.2344C42.4055 25.5674 42.1402 24.928 41.6686 24.4564C41.197 23.9848 40.5576 23.7195 39.8906 23.7188H38.8025C38.7578 23.3236 38.5693 22.9587 38.2729 22.6936C37.9765 22.4285 37.593 22.2818 37.1953 22.2812H14.375C14.1844 22.2812 14.0016 22.357 13.8668 22.4918C13.732 22.6266 13.6562 22.8094 13.6562 23V23.7188H11.7373C11.9425 23.2861 12.02 22.8038 11.9607 22.3286L10.9724 14.4223C10.8956 13.8143 10.5997 13.2551 10.1402 12.8495C9.68077 12.4439 9.0892 12.2196 8.47631 12.2188H7.54688C7.17288 12.2183 6.80354 12.3018 6.46605 12.4629C6.43568 11.8166 6.15776 11.2068 5.6899 10.7599C5.22204 10.313 4.60014 10.0633 3.95312 10.0625H2.15625C1.96563 10.0625 1.78281 10.1382 1.64802 10.273C1.51323 10.4078 1.4375 10.5906 1.4375 10.7812V14.375H2.875V11.5H3.95312C4.23897 11.5003 4.51301 11.614 4.71513 11.8161C4.91725 12.0182 5.03094 12.2923 5.03125 12.5781V36.6562H2.875V15.8125H1.4375V41.6875C1.4375 41.8781 1.51323 42.0609 1.64802 42.1957C1.78281 42.3305 1.96563 42.4062 2.15625 42.4062H3.87855C4.78388 42.4071 5.66645 42.1226 6.40089 41.5933C7.13532 41.0639 7.68428 40.3166 7.96977 39.4575L8.42429 38.0938H33.0625V36.6562H6.46875V32.3438H42.0469C42.3327 32.3441 42.6068 32.4577 42.8089 32.6599C43.011 32.862 43.1247 33.136 43.125 33.4219V36.6562H34.5V38.0938H37.5757L38.0302 39.4576C38.3157 40.3167 38.8647 41.064 39.5991 41.5933C40.3336 42.1226 41.2161 42.4071 42.1214 42.4062H43.8438C44.0344 42.4062 44.2172 42.3305 44.352 42.1957C44.4868 42.0609 44.5625 41.8781 44.5625 41.6875V33.4219C44.5617 32.7749 44.312 32.153 43.8651 31.6851C43.4182 31.2172 42.8084 30.9393 42.1621 30.9089ZM6.90898 38.0938L6.60594 39.0029C6.41565 39.5756 6.0497 40.0739 5.56008 40.4268C5.07047 40.7797 4.4821 40.9693 3.87855 40.9688H2.875V38.0938H6.90898ZM37.375 23.8984V28.0312H19.4062V23.7188H37.1953C37.243 23.7188 37.2887 23.7377 37.3224 23.7714C37.3561 23.8051 37.375 23.8508 37.375 23.8984ZM15.0938 23.7188H17.9688V28.0312H15.0938V23.7188ZM7.54688 13.6562H8.47631C8.73897 13.6566 8.99248 13.7528 9.18937 13.9266C9.38627 14.1005 9.51305 14.3401 9.54599 14.6007L10.5343 22.5069C10.5532 22.6586 10.5397 22.8126 10.4946 22.9586C10.4495 23.1047 10.3739 23.2395 10.2727 23.3541C10.1716 23.4687 10.0472 23.5605 9.90788 23.6233C9.76855 23.6862 9.61745 23.7187 9.46459 23.7188H6.46875V14.7344C6.46906 14.4485 6.58275 14.1745 6.78487 13.9724C6.98699 13.7702 7.26103 13.6566 7.54688 13.6562ZM6.46875 30.9062V25.1562H13.6562V28.75C13.6562 28.9406 13.732 29.1234 13.8668 29.2582C14.0016 29.393 14.1844 29.4688 14.375 29.4688H38.0938C38.2844 29.4688 38.4672 29.393 38.602 29.2582C38.7368 29.1234 38.8125 28.9406 38.8125 28.75V25.1562H39.8906C40.1765 25.1566 40.4505 25.2702 40.6526 25.4724C40.8548 25.6745 40.9684 25.9485 40.9688 26.2344V29.8281C40.9684 30.114 40.8548 30.388 40.6526 30.5901C40.4505 30.7923 40.1765 30.9059 39.8906 30.9062H6.46875ZM43.125 40.9688H42.1214C41.5179 40.9693 40.9295 40.7797 40.4399 40.4268C39.9503 40.0739 39.5844 39.5757 39.3941 39.003L39.091 38.0938H43.125V40.9688Z" fill="#4E3DFF"/>
<path d="M25.6819 18.164L27.1724 18.9793L27.9877 20.4699C28.0496 20.583 28.1408 20.6774 28.2517 20.7432C28.3627 20.809 28.4893 20.8437 28.6183 20.8437C28.7472 20.8437 28.8738 20.809 28.9848 20.7432C29.0957 20.6774 29.1869 20.583 29.2488 20.4699L30.0641 18.9793L31.5547 18.164C31.6678 18.1021 31.7622 18.0109 31.828 17.9C31.8938 17.789 31.9285 17.6624 31.9285 17.5335C31.9285 17.4045 31.8938 17.2779 31.828 17.1669C31.7622 17.056 31.6678 16.9648 31.5547 16.9029L30.0641 16.0876L29.2488 14.5971C29.1869 14.484 29.0957 14.3896 28.9848 14.3238C28.8738 14.258 28.7472 14.2233 28.6183 14.2233C28.4893 14.2233 28.3627 14.258 28.2517 14.3238C28.1408 14.3896 28.0496 14.484 27.9877 14.5971L27.1724 16.0876L25.6819 16.9029C25.5687 16.9648 25.4743 17.056 25.4085 17.1669C25.3427 17.2779 25.308 17.4045 25.308 17.5335C25.308 17.6624 25.3427 17.789 25.4085 17.9C25.4743 18.0109 25.5687 18.1021 25.6819 18.164ZM28.0469 17.2476C28.1675 17.1817 28.2666 17.0825 28.3326 16.9619L28.6182 16.4396L28.9039 16.9619C28.9699 17.0825 29.069 17.1817 29.1896 17.2476L29.7118 17.5331L29.1896 17.8188C29.069 17.8848 28.9698 17.9839 28.9039 18.1045L28.6182 18.6268L28.3326 18.1045C28.2666 17.984 28.1675 17.8848 28.0469 17.8188L27.5246 17.5331L28.0469 17.2476Z" fill="#4E3DFF"/>
<path d="M16.9051 10.4095L18.3957 11.2248L19.2109 12.7153C19.2728 12.8284 19.364 12.9228 19.4749 12.9886C19.5859 13.0544 19.7125 13.0891 19.8415 13.0891C19.9704 13.0891 20.097 13.0544 20.208 12.9886C20.3189 12.9228 20.4101 12.8284 20.472 12.7153L21.2873 11.2248L22.7778 10.4095C22.8909 10.3476 22.9853 10.2564 23.0511 10.1455C23.1169 10.0345 23.1516 9.90794 23.1516 9.77896C23.1516 9.64999 23.1169 9.52339 23.0511 9.41244C22.9853 9.3015 22.8909 9.21029 22.7778 9.14839L21.2873 8.33315L20.472 6.84256C20.4101 6.72941 20.3189 6.63499 20.208 6.56922C20.097 6.50345 19.9704 6.46875 19.8415 6.46875C19.7125 6.46875 19.5859 6.50345 19.4749 6.56922C19.364 6.63499 19.2728 6.72941 19.2109 6.84256L18.3957 8.33315L16.9051 9.14839C16.7919 9.21029 16.6975 9.3015 16.6317 9.41244C16.566 9.52339 16.5312 9.64999 16.5312 9.77896C16.5312 9.90794 16.566 10.0345 16.6317 10.1455C16.6975 10.2564 16.7919 10.3476 16.9051 10.4095ZM19.2701 9.49313C19.3907 9.42721 19.4899 9.32805 19.5558 9.20742L19.8415 8.68525L20.127 9.20742C20.193 9.32802 20.2921 9.42717 20.4127 9.49313L20.935 9.77883L20.4127 10.0644C20.2921 10.1303 20.193 10.2295 20.127 10.3501L19.8415 10.8723L19.5558 10.3501C19.4898 10.2295 19.3907 10.1303 19.2701 10.0644L18.7479 9.77883L19.2701 9.49313Z" fill="#4E3DFF"/>
<path d="M30.4096 7.53453L31.9001 8.34978L32.7154 9.84028C32.7773 9.95344 32.8685 10.0478 32.9794 10.1136C33.0904 10.1794 33.217 10.2141 33.346 10.2141C33.4749 10.2141 33.6015 10.1794 33.7125 10.1136C33.8234 10.0478 33.9146 9.95344 33.9765 9.84028L34.7918 8.34978L36.2824 7.53453C36.3955 7.47264 36.4899 7.38143 36.5557 7.27049C36.6215 7.15954 36.6562 7.03294 36.6562 6.90397C36.6562 6.77499 36.6215 6.64839 36.5557 6.53745C36.4899 6.4265 36.3955 6.3353 36.2824 6.2734L34.7918 5.45816L33.9765 3.96756C33.9146 3.85441 33.8234 3.75999 33.7125 3.69422C33.6015 3.62845 33.4749 3.59375 33.346 3.59375C33.217 3.59375 33.0904 3.62845 32.9794 3.69422C32.8685 3.75999 32.7773 3.85441 32.7154 3.96756L31.9001 5.45816L30.4096 6.2734C30.2965 6.3353 30.2021 6.4265 30.1363 6.53745C30.0705 6.64839 30.0358 6.77499 30.0358 6.90397C30.0358 7.03294 30.0705 7.15954 30.1363 7.27049C30.2021 7.38143 30.2965 7.47264 30.4096 7.53453ZM32.7747 6.61813C32.8953 6.55217 32.9944 6.45302 33.0604 6.33243L33.3459 5.81025L33.6316 6.33243C33.6975 6.45305 33.7967 6.55222 33.9173 6.61813L34.4395 6.90383L33.9173 7.18936C33.7967 7.25531 33.6976 7.35446 33.6316 7.47506L33.3459 7.99732L33.0604 7.47497C32.9944 7.35437 32.8953 7.25522 32.7747 7.18926L32.2524 6.90374L32.7747 6.61813Z" fill="#4E3DFF"/>
</svg>
