<svg width="46" height="46" viewBox="0 0 46 46" fill="none" xmlns="http://www.w3.org/2000/svg">
<path d="M31.625 28.0312H33.0625V30.9062H31.625V28.0312Z" fill="#4E3DFF"/>
<path d="M31.625 32.3438H33.0625V33.7812H31.625V32.3438Z" fill="#4E3DFF"/>
<path d="M43.1322 18.0047C43.419 17.9235 43.6855 17.783 43.9145 17.5924C44.1436 17.4017 44.33 17.1651 44.4619 16.8978L44.6128 16.6031C44.8512 16.1169 44.8993 15.5591 44.7477 15.0392C44.5961 14.5193 44.2558 14.0748 43.7935 13.7928L24.1069 1.98376C23.7727 1.78275 23.39 1.67654 23 1.67654C22.61 1.67654 22.2274 1.78275 21.8931 1.98376L2.20658 13.7928C1.74425 14.0748 1.40393 14.5193 1.25235 15.0392C1.10077 15.5591 1.14887 16.1169 1.3872 16.6031L1.53814 16.8978C1.66999 17.1651 1.85647 17.4017 2.08552 17.5924C2.31457 17.783 2.58108 17.9235 2.86783 18.0047C3.0615 18.062 3.26242 18.091 3.46439 18.0909C3.75727 18.0839 4.04572 18.0179 4.31252 17.8969V40.25H3.59377C3.02189 40.25 2.47344 40.4772 2.06907 40.8816C1.66469 41.2859 1.43752 41.8344 1.43752 42.4063C1.43752 42.9781 1.66469 43.5266 2.06907 43.931C2.47344 44.3353 3.02189 44.5625 3.59377 44.5625H42.4063C42.9781 44.5625 43.5266 44.3353 43.931 43.931C44.3353 43.5266 44.5625 42.9781 44.5625 42.4063C44.5625 41.8344 44.3353 41.2859 43.931 40.8816C43.5266 40.4772 42.9781 40.25 42.4063 40.25H41.6875V17.9041C42.1425 18.1056 42.6537 18.1412 43.1322 18.0047ZM42.4063 41.6875C42.5969 41.6875 42.7797 41.7632 42.9145 41.898C43.0493 42.0328 43.125 42.2156 43.125 42.4063C43.125 42.5969 43.0493 42.7797 42.9145 42.9145C42.7797 43.0493 42.5969 43.125 42.4063 43.125H3.59377C3.40314 43.125 3.22032 43.0493 3.08553 42.9145C2.95074 42.7797 2.87502 42.5969 2.87502 42.4063C2.87502 42.2156 2.95074 42.0328 3.08553 41.898C3.22032 41.7632 3.40314 41.6875 3.59377 41.6875H42.4063ZM35.9375 34.5719V25.1563C35.9375 24.9656 35.8618 24.7828 35.727 24.648C35.5922 24.5132 35.4094 24.4375 35.2188 24.4375C34.9744 24.4375 34.7372 24.4591 34.5 24.4734V20.8438C34.5 20.3718 34.4071 19.9045 34.2265 19.4685C34.0459 19.0325 33.7811 18.6363 33.4474 18.3026C33.1137 17.9689 32.7176 17.7042 32.2815 17.5236C31.8455 17.343 31.3782 17.25 30.9063 17.25H22.2813C21.3281 17.25 20.4141 17.6286 19.7401 18.3026C19.0661 18.9765 18.6875 19.8906 18.6875 20.8438V25.875C18.6858 26.4464 18.4581 26.9938 18.0541 27.3978C17.6501 27.8018 17.1026 28.0296 16.5313 28.0313H15.8125C14.8594 28.0313 13.9453 28.4099 13.2714 29.0838C12.5974 29.7578 12.2188 30.6719 12.2188 31.625V33.0625H11.5C11.3094 33.0625 11.1266 33.1382 10.9918 33.273C10.857 33.4078 10.7813 33.5906 10.7813 33.7813V35.9375H9.34377C8.77242 35.9392 8.22496 36.1669 7.82095 36.5709C7.41695 36.9749 7.18922 37.5224 7.18752 38.0938V40.25H5.75002V17.0775L22.6263 6.91438C22.7394 6.84733 22.8685 6.81196 23 6.81196C23.1315 6.81196 23.2606 6.84733 23.3738 6.91438L40.25 17.0775V40.25H38.0722C38.5501 39.6326 38.8103 38.8745 38.8125 38.0938C38.8104 37.2659 38.5235 36.464 38 35.8227C37.4764 35.1813 36.7482 34.7397 35.9375 34.5719ZM32.3653 40.25H23V38.0938C23.0036 34.9787 24.1954 31.9822 26.3324 29.7157C28.4694 27.4492 31.3905 26.0833 34.5 25.8966V34.5719C33.6893 34.7397 32.9611 35.1813 32.4376 35.8227C31.914 36.464 31.6271 37.2659 31.625 38.0938C31.6272 38.8745 31.8875 39.6326 32.3653 40.25ZM16.5313 35.9375H15.0938V33.7813C15.0938 33.5906 15.018 33.4078 14.8833 33.273C14.7485 33.1382 14.5656 33.0625 14.375 33.0625H13.6563V31.625C13.658 31.0537 13.8857 30.5062 14.2897 30.1022C14.6937 29.6982 15.2412 29.4705 15.8125 29.4688H16.5313C17.0032 29.4688 17.4705 29.3758 17.9065 29.1952C18.3426 29.0146 18.7387 28.7499 19.0724 28.4162C19.4061 28.0825 19.6709 27.6863 19.8515 27.2503C20.0321 26.8143 20.125 26.3469 20.125 25.875V20.8438C20.1267 20.2724 20.3544 19.7249 20.7585 19.3209C21.1625 18.9169 21.7099 18.6892 22.2813 18.6875H30.9063C31.4776 18.6892 32.0251 18.9169 32.4291 19.3209C32.8331 19.7249 33.0608 20.2724 33.0625 20.8438V24.6244C29.8591 25.1398 26.9435 26.7777 24.8367 29.2453C22.73 31.7128 21.5694 34.8492 21.5625 38.0938V40.25H18.6875V38.0938C18.6858 37.5224 18.4581 36.9749 18.0541 36.5709C17.6501 36.1669 17.1026 35.9392 16.5313 35.9375ZM16.5313 37.375C16.7219 37.375 16.9047 37.4507 17.0395 37.5855C17.1743 37.7203 17.25 37.9031 17.25 38.0938V40.25H8.62502V38.0938C8.62502 37.9031 8.70074 37.7203 8.83553 37.5855C8.97033 37.4507 9.15314 37.375 9.34377 37.375H16.5313ZM12.2188 35.9375V34.5H13.6563V35.9375H12.2188ZM35.2188 35.9375C35.6452 35.9375 36.0621 36.064 36.4167 36.3009C36.7713 36.5378 37.0477 36.8746 37.2109 37.2686C37.3741 37.6626 37.4168 38.0961 37.3336 38.5144C37.2504 38.9327 37.045 39.3169 36.7435 39.6185C36.4419 39.92 36.0577 40.1254 35.6394 40.2086C35.2212 40.2918 34.7876 40.2491 34.3936 40.0859C33.9996 39.9227 33.6628 39.6463 33.4259 39.2917C33.189 38.9371 33.0625 38.5202 33.0625 38.0938C33.0642 37.5224 33.2919 36.9749 33.696 36.5709C34.1 36.1669 34.6474 35.9392 35.2188 35.9375ZM24.1141 5.68532C23.7785 5.48083 23.393 5.37266 23 5.37266C22.607 5.37266 22.2216 5.48083 21.886 5.68532L3.83814 16.5528C3.75224 16.6033 3.65693 16.6357 3.55806 16.6481C3.45918 16.6605 3.35883 16.6525 3.26314 16.6247C3.16835 16.5979 3.08029 16.5515 3.00473 16.4883C2.92917 16.4251 2.86782 16.3467 2.8247 16.2581L2.67377 15.9634C2.5952 15.8004 2.57962 15.6142 2.63003 15.4404C2.68044 15.2666 2.79329 15.1175 2.94689 15.0219L22.6335 3.21282C22.7444 3.14703 22.871 3.11232 23 3.11232C23.129 3.11232 23.2556 3.14703 23.3666 3.21282L43.0531 15.0219C43.2067 15.1175 43.3196 15.2666 43.37 15.4404C43.4204 15.6142 43.4048 15.8004 43.3263 15.9634L43.1753 16.2581C43.1322 16.3467 43.0709 16.4251 42.9953 16.4883C42.9198 16.5515 42.8317 16.5979 42.7369 16.6247C42.6412 16.6525 42.5409 16.6605 42.442 16.6481C42.3431 16.6357 42.2478 16.6033 42.1619 16.5528L24.1141 5.68532Z" fill="#4E3DFF"/>
<path d="M12.2188 1.4375H13.6562V2.875H12.2188V1.4375Z" fill="#4E3DFF"/>
<path d="M10.7812 2.875H12.2188V4.3125H10.7812V2.875Z" fill="#4E3DFF"/>
<path d="M12.2188 4.3125H13.6562V5.75H12.2188V4.3125Z" fill="#4E3DFF"/>
<path d="M13.6562 2.875H15.0938V4.3125H13.6562V2.875Z" fill="#4E3DFF"/>
<path d="M7.1875 4.3125H8.625V5.75H7.1875V4.3125Z" fill="#4E3DFF"/>
<path d="M5.75 5.75H7.1875V7.1875H5.75V5.75Z" fill="#4E3DFF"/>
<path d="M7.1875 7.1875H8.625V8.625H7.1875V7.1875Z" fill="#4E3DFF"/>
<path d="M8.625 5.75H10.0625V7.1875H8.625V5.75Z" fill="#4E3DFF"/>
<path d="M2.875 1.4375H4.3125V2.875H2.875V1.4375Z" fill="#4E3DFF"/>
<path d="M1.4375 2.875H2.875V4.3125H1.4375V2.875Z" fill="#4E3DFF"/>
<path d="M2.875 4.3125H4.3125V5.75H2.875V4.3125Z" fill="#4E3DFF"/>
<path d="M4.3125 2.875H5.75V4.3125H4.3125V2.875Z" fill="#4E3DFF"/>
<path d="M41.6875 1.4375H43.125V2.875H41.6875V1.4375Z" fill="#4E3DFF"/>
<path d="M40.25 2.875H41.6875V4.3125H40.25V2.875Z" fill="#4E3DFF"/>
<path d="M41.6875 4.3125H43.125V5.75H41.6875V4.3125Z" fill="#4E3DFF"/>
<path d="M43.125 2.875H44.5625V4.3125H43.125V2.875Z" fill="#4E3DFF"/>
<path d="M37.375 4.3125H38.8125V5.75H37.375V4.3125Z" fill="#4E3DFF"/>
<path d="M35.9375 5.75H37.375V7.1875H35.9375V5.75Z" fill="#4E3DFF"/>
<path d="M37.375 7.1875H38.8125V8.625H37.375V7.1875Z" fill="#4E3DFF"/>
<path d="M38.8125 5.75H40.25V7.1875H38.8125V5.75Z" fill="#4E3DFF"/>
<path d="M33.0625 1.4375H34.5V2.875H33.0625V1.4375Z" fill="#4E3DFF"/>
<path d="M31.625 2.875H33.0625V4.3125H31.625V2.875Z" fill="#4E3DFF"/>
<path d="M33.0625 4.3125H34.5V5.75H33.0625V4.3125Z" fill="#4E3DFF"/>
<path d="M34.5 2.875H35.9375V4.3125H34.5V2.875Z" fill="#4E3DFF"/>
</svg>
