<svg width="46" height="46" viewBox="0 0 46 46" fill="none" xmlns="http://www.w3.org/2000/svg">
<path d="M34.223 28.548H31.9393C31.4191 28.548 30.996 28.9712 30.996 29.4914V35.587C30.996 36.1072 31.4192 36.5304 31.9393 36.5304H34.223C34.7432 36.5304 35.1663 36.1072 35.1663 35.587V29.4914C35.1663 28.9711 34.7432 28.548 34.223 28.548ZM33.8187 35.1827H32.3436V29.8957H33.8187V35.1827Z" fill="#4E3DFF"/>
<path d="M40.2823 28.548H37.9987C37.4785 28.548 37.0553 28.9712 37.0553 29.4914V35.587C37.0553 36.1072 37.4785 36.5304 37.9987 36.5304H40.2823C40.8025 36.5304 41.2257 36.1072 41.2257 35.587V29.4914C41.2257 28.9711 40.8025 28.548 40.2823 28.548ZM39.878 35.1827H38.403V29.8957H39.878V35.1827Z" fill="#4E3DFF"/>
<path d="M9.2559 13.9656C7.9971 13.5735 7.84554 13.4219 7.45346 12.1631C7.32696 11.757 6.95617 11.484 6.53067 11.484C6.10508 11.484 5.73421 11.757 5.60798 12.1631C5.21599 13.4219 5.06442 13.5735 3.80562 13.9656C3.39944 14.0921 3.1264 14.4629 3.1264 14.8883C3.12649 15.314 3.39962 15.6849 3.80562 15.811C5.06442 16.203 5.21608 16.3545 5.60789 17.613C5.73421 18.0194 6.10508 18.2925 6.53067 18.2925C6.95617 18.2925 7.32705 18.0195 7.45346 17.6134C7.84554 16.3546 7.9971 16.203 9.25536 15.8112C9.66191 15.6849 9.93503 15.314 9.93503 14.8882C9.93503 14.4628 9.66209 14.092 9.2559 13.9656ZM6.53076 16.2387C6.22008 15.5807 5.83861 15.1991 5.18041 14.8885C5.83861 14.5777 6.22008 14.1961 6.53076 13.538C6.84144 14.1961 7.22301 14.5777 7.88102 14.8884C7.22301 15.199 6.84144 15.5806 6.53076 16.2387Z" fill="#4E3DFF"/>
<path d="M26.3756 36.6801C25.3688 36.3666 25.2763 36.2742 24.9629 35.2678C24.8433 34.8827 24.4919 34.6241 24.0886 34.6241C23.6857 34.6241 23.3344 34.8825 23.2143 35.2675C22.9008 36.2742 22.8085 36.3666 21.8027 36.6799C21.4173 36.7993 21.1583 37.1507 21.1583 37.5543C21.1583 37.9576 21.4171 38.309 21.8017 38.4285C22.8085 38.7421 22.9008 38.8345 23.2145 39.8417C23.3345 40.2263 23.6858 40.4847 24.0887 40.4847C24.492 40.4847 24.8434 40.2259 24.9629 39.8412C25.2765 38.8344 25.3689 38.7421 26.3751 38.4286C26.7603 38.3089 27.019 37.9576 27.019 37.5542C27.019 37.1506 26.76 36.7992 26.3756 36.6801ZM24.0886 38.4178C23.8727 38.0344 23.6086 37.7703 23.2252 37.5544C23.6087 37.3385 23.8728 37.0745 24.0886 36.6909C24.3045 37.0743 24.5685 37.3384 24.9521 37.5543C24.5685 37.7701 24.3046 38.0343 24.0886 38.4178Z" fill="#4E3DFF"/>
<path d="M44.4845 16.3189C43.4778 16.0053 43.3853 15.9129 43.0718 14.9064C42.9521 14.5215 42.6007 14.2628 42.1975 14.2628C41.7946 14.2628 41.4433 14.5212 41.3232 14.9062C41.0097 15.9129 40.9173 16.0053 39.9111 16.3187C39.5258 16.4383 39.2671 16.7897 39.2671 17.1931C39.2671 17.596 39.5257 17.9473 39.9105 18.0672C40.9173 18.3808 41.0097 18.4733 41.3233 19.4803C41.4433 19.865 41.7947 20.1235 42.1975 20.1235C42.6007 20.1235 42.952 19.8648 43.0717 19.4801C43.3853 18.4733 43.4777 18.3809 44.4845 18.0673C44.8694 17.9474 45.128 17.5961 45.128 17.1932C45.128 16.7899 44.8692 16.4384 44.4845 16.3189ZM42.1975 18.0566C41.9816 17.6731 41.7176 17.409 41.334 17.1931C41.7176 16.9771 41.9816 16.7131 42.1975 16.3296C42.4134 16.713 42.6775 16.9772 43.061 17.1931C42.6775 17.4091 42.4134 17.673 42.1975 18.0566Z" fill="#4E3DFF"/>
<path d="M44.1329 39.3743V34.3204C44.1329 33.9482 43.8312 33.6465 43.459 33.6465C43.0869 33.6465 42.7852 33.9482 42.7852 34.3204V39.0027C42.3821 38.5629 41.8036 38.2862 41.1614 38.2862C40.9472 38.2862 40.7351 38.3178 40.5319 38.3784C40.1329 37.7793 39.4514 37.3936 38.6966 37.3936C37.6468 37.3936 36.7661 38.1314 36.5458 39.1158C36.3179 39.0833 36.0796 39.0868 35.8517 39.1267C35.6688 38.0949 34.7653 37.3087 33.6818 37.3087C32.4667 37.3087 31.478 38.2974 31.478 39.5125V41.8133H28.7216V27.7566H42.7851V30.7266C42.7851 31.0987 43.0868 31.4004 43.459 31.4004C43.8311 31.4004 44.1328 31.0987 44.1328 30.7266V27.7567H44.832C45.2305 27.7567 45.5469 27.5661 45.6786 27.2468C45.8103 26.9275 45.7202 26.5692 45.4377 26.2882L35.1165 16.029C34.8129 15.7272 34.3019 15.5164 33.8738 15.5164C33.8737 15.5164 33.8736 15.5164 33.8735 15.5164C33.8735 15.5164 14.3091 15.518 14.3074 15.518C13.9059 15.518 13.4151 15.7277 13.1121 16.029L9.67725 19.4431C9.41329 19.7055 9.41203 20.1321 9.67437 20.396C9.93672 20.6601 10.3634 20.6613 10.6273 20.3989L14.1328 16.9138L14.8076 17.5915L6.11054 26.2885C6.05816 26.3389 5.89231 26.4077 5.8199 26.409H4.58095L8.38125 22.6316C8.64522 22.3693 8.64647 21.9426 8.38413 21.6787C8.12187 21.4148 7.69521 21.4135 7.43125 21.6758L2.79082 26.2884C2.50826 26.5693 2.41832 26.9276 2.54995 27.2469C2.68166 27.5662 2.99809 27.7567 3.39654 27.7567H5.59538V30.3961C5.40132 30.482 5.16188 30.5627 4.85713 30.6577C4.45077 30.7841 4.17773 31.155 4.17773 31.5805C4.17773 32.0058 4.45059 32.3767 4.85695 32.5034C5.1617 32.5982 5.40123 32.6791 5.59529 32.765V37.3132C4.71662 37.46 3.98304 38.0411 3.62502 38.8311C3.31694 38.7074 2.98488 38.6427 2.64195 38.6427C1.18522 38.6425 0 39.8277 0 41.2846V42.4873C0 42.8595 0.301695 43.1612 0.673828 43.1612H45.3262C45.6983 43.1612 46 42.8595 46 42.4873V41.5525C46 40.4516 45.1888 39.5369 44.1329 39.3743ZM5.59529 41.8134H1.34766V41.2845C1.34766 40.5708 1.92832 39.9902 2.64204 39.9902C2.99728 39.9902 3.32916 40.1326 3.57641 40.3913C3.7667 40.5902 4.05896 40.6496 4.3143 40.5471C4.56981 40.4446 4.73728 40.193 4.73728 39.9177C4.73728 39.3573 5.09603 38.8803 5.59529 38.7007V41.8134ZM43.6475 26.409H25.6596C25.5873 26.4075 25.4224 26.3391 25.3706 26.289L23.8343 24.7462H41.9746L43.6475 26.409ZM37.9498 20.7453H35.4883C35.1161 20.7453 34.8145 21.047 34.8145 21.4192C34.8145 21.7913 35.1161 22.093 35.4883 22.093H39.3057L40.619 23.3984H22.4924L21.1925 22.093H31.7148C32.087 22.093 32.3887 21.7913 32.3887 21.4192C32.3887 21.047 32.087 20.7453 31.7148 20.7453H19.8505L18.5506 19.4398H36.6364L37.9498 20.7453ZM33.8735 16.864C33.9467 16.8652 34.1138 16.9342 34.1665 16.9846L35.2807 18.0921H17.2087L15.9887 16.8669L33.8735 16.864ZM18.0751 41.8134H13.1938V29.8957H18.0751V41.8134ZM19.4228 41.8134V29.6711C19.4228 29.0518 18.919 28.5481 18.2997 28.5481H12.9692C12.3499 28.5481 11.8462 29.0518 11.8462 29.6711V41.8134H6.94295V34.7442C7.11482 34.8956 7.33943 34.9847 7.582 34.9847C8.00777 34.9847 8.37865 34.7115 8.5047 34.3055C8.89678 33.0466 9.04843 32.8951 10.3076 32.503C10.7135 32.3763 10.9863 32.0054 10.9863 31.5802C10.9863 31.1548 10.7133 30.784 10.3071 30.6575C9.04834 30.2655 8.89678 30.114 8.50479 28.8556C8.37847 28.4492 8.00768 28.176 7.582 28.176C7.33943 28.176 7.11491 28.265 6.94295 28.4165V27.5322C6.94429 27.4594 7.01302 27.2937 7.06325 27.2415L15.7586 18.5462L24.4157 27.2399C24.7186 27.5441 25.23 27.7566 25.6593 27.7566H27.374V41.8134H19.4228ZM6.23165 31.5804C6.88985 31.2697 7.27132 30.8882 7.582 30.23C7.89277 30.8882 8.27425 31.2697 8.93235 31.5804C8.27434 31.8911 7.89277 32.2726 7.582 32.9307C7.27141 32.2725 6.88985 31.8911 6.23165 31.5804ZM44.6524 41.8134H44.6523H32.8257V39.5126C32.8257 39.0406 33.2097 38.6565 33.6818 38.6565C34.1537 38.6565 34.5378 39.0406 34.5378 39.5126V40.1593C34.5378 40.4252 34.6942 40.6662 34.9369 40.7746C35.1796 40.883 35.4635 40.8385 35.6614 40.661C35.8194 40.5194 36.0219 40.4414 36.2316 40.4414C36.4216 40.4414 36.6022 40.5035 36.7537 40.621C36.957 40.7785 37.2321 40.8065 37.4631 40.6934C37.694 40.5802 37.8404 40.3456 37.8404 40.0884V39.5976C37.8404 39.1256 38.2245 38.7415 38.6965 38.7415C39.1048 38.7415 39.4578 39.0319 39.536 39.4319C39.5814 39.6642 39.7453 39.8556 39.9679 39.9362C40.1905 40.0168 40.4389 39.9748 40.6226 39.8254C40.7766 39.7001 40.9629 39.634 41.1614 39.634C41.6334 39.634 42.0175 40.018 42.0175 40.4962C42.0175 40.7715 42.185 41.0191 42.4405 41.1216C42.6959 41.2241 42.988 41.161 43.1784 40.962C43.3421 40.7907 43.5616 40.6965 43.7963 40.6965C44.2683 40.6965 44.6524 41.0806 44.6524 41.5526V41.8134Z" fill="#4E3DFF"/>
<path d="M16.9746 34.3076C16.6025 34.3076 16.3008 34.6093 16.3008 34.9814V35.9291C16.3008 36.3013 16.6025 36.603 16.9746 36.603C17.3467 36.603 17.6484 36.3013 17.6484 35.9291V34.9814C17.6484 34.6093 17.3467 34.3076 16.9746 34.3076Z" fill="#4E3DFF"/>
<path d="M22.9102 29.8831H21.2031C20.6829 29.8831 20.2598 30.3062 20.2598 30.8264V32.8928C20.2598 33.413 20.6829 33.8362 21.2031 33.8362H22.9102C23.4304 33.8362 23.8535 33.413 23.8535 32.8928V30.8264C23.8535 30.3061 23.4304 29.8831 22.9102 29.8831ZM22.5059 32.4885H21.6074V31.2307H22.5059V32.4885Z" fill="#4E3DFF"/>
<path d="M34.9492 2.83899C32.3979 2.83899 30.3223 4.91465 30.3223 7.46594C30.3223 10.0172 32.3979 12.0929 34.9492 12.0929C37.5005 12.0929 39.5762 10.0172 39.5762 7.46594C39.5762 4.91465 37.5005 2.83899 34.9492 2.83899ZM34.9492 10.7452C33.141 10.7452 31.6699 9.27414 31.6699 7.46594C31.6699 5.65775 33.141 4.18665 34.9492 4.18665C36.7574 4.18665 38.2285 5.65775 38.2285 7.46594C38.2285 9.27414 36.7574 10.7452 34.9492 10.7452Z" fill="#4E3DFF"/>
</svg>
